<svg xmlns="http://www.w3.org/2000/svg" width="800" height="480" viewBox="0 0 800 480"><rect width="800" height="480" fill="#dcece4"/><circle cx="484" cy="232" r="178" fill="#9cc8b5" opacity=".55"/><circle cx="484" cy="232" r="151" fill="none" stroke="#fff8ec" stroke-width="2" opacity=".65"/><path d="M693 0V480 M723 0V480 M753 0V480" stroke="#296e60" opacity=".10" stroke-width="13"/><path d="M61 131V71H121" stroke="#296e60" stroke-width="3" fill="none"/><text x="59" y="173" font-family="Arial,sans-serif" font-weight="700" font-size="17" letter-spacing="4" fill="#296e60">LEXIANG</text><text x="56" y="226" font-family="Arial,sans-serif" font-weight="800" font-size="38" letter-spacing="-1" fill="#296e60">RIDE</text><text x="59" y="256" font-family="Arial,sans-serif" font-size="12" letter-spacing="3" fill="#296e60">MOVE WITH JOY</text><text x="58" y="405" font-family="Arial,sans-serif" font-weight="800" font-size="73" fill="#296e60" opacity=".17">07</text><ellipse cx="446" cy="421" rx="166" ry="10" fill="#296e60" opacity=".12"/><circle cx="355" cy="365" r="59" fill="none" stroke="#263137" stroke-width="11"/><circle cx="553" cy="365" r="59" fill="none" stroke="#263137" stroke-width="11"/><path d="M355 365 L415 288 L468 365 L355 365 M415 288 L516 288 L553 365 L468 365 L516 288" fill="none" stroke="#296e60" stroke-width="9" stroke-linecap="round" stroke-linejoin="round"/><path d="M406 279 L436 279 M514 287 L527 257 L553 253" fill="none" stroke="#263137" stroke-width="10" stroke-linecap="round" stroke-linejoin="round"/><path d="M429 274 L471 306 L447 359" fill="none" stroke="#263137" stroke-width="24" stroke-linecap="round" stroke-linejoin="round"/><path d="M422 200 Q453 199 482 225 L436 281 L406 270Z" fill="#fff8ec"/><circle cx="490" cy="184" r="24" fill="#e8aa83"/><path d="M466,182 Q462,148 498,161 Q522,162 514,188 Q495,167 466,182" fill="#263137"/><path d="M470 224 L498 252 L537 253" fill="none" stroke="#e8aa83" stroke-width="19" stroke-linecap="round" stroke-linejoin="round"/><path d="M681 355v42 M660 376h42 M667 361l29 30 M667 391l29-30" stroke="#ff976b" stroke-width="5" stroke-linecap="round"/><circle cx="643" cy="82" r="9" fill="#ff976b"/><circle cx="659" cy="104" r="3" fill="#296e60"/></svg>